<mxfile host="app.diagrams.net" modified="2023-08-30T10:59:40.936Z" agent="Mozilla/5.0 (Windows NT 10.0; Win64; x64; rv:109.0) Gecko/20100101 Firefox/116.0" etag="tMAAHZuA87udTv6SEBEE" version="21.5.2">
  <diagram name="PÃ¡gina-1" id="xNhPNnMRd9htXLf8wS57">
    <mxGraphModel dx="2062" dy="656" grid="1" gridSize="10" guides="1" tooltips="1" connect="1" arrows="1" fold="1" page="1" pageScale="1" pageWidth="827" pageHeight="1169" math="0" shadow="0">
      <root>
        <mxCell id="0" />
        <mxCell id="1" parent="0" />
        <mxCell id="IrRJ5_O-pY0Ifu8mV4sr-7" value="" style="group" parent="1" vertex="1" connectable="0">
          <mxGeometry y="200" width="128" height="168" as="geometry" />
        </mxCell>
        <mxCell id="IrRJ5_O-pY0Ifu8mV4sr-3" value="" style="shape=image;html=1;verticalAlign=top;verticalLabelPosition=bottom;labelBackgroundColor=#ffffff;imageAspect=0;aspect=fixed;image=https://cdn3.iconfinder.com/data/icons/clinical-3/96/medic-128.png" parent="IrRJ5_O-pY0Ifu8mV4sr-7" vertex="1">
          <mxGeometry y="40" width="100" height="100" as="geometry" />
        </mxCell>
        <mxCell id="IrRJ5_O-pY0Ifu8mV4sr-4" value="&lt;font style=&quot;font-size: 17px;&quot;&gt;Raw Data Source&lt;/font&gt;" style="text;html=1;strokeColor=none;fillColor=none;align=center;verticalAlign=middle;whiteSpace=wrap;rounded=0;" parent="IrRJ5_O-pY0Ifu8mV4sr-7" vertex="1">
          <mxGeometry x="-13" width="126" height="30" as="geometry" />
        </mxCell>
        <mxCell id="IrRJ5_O-pY0Ifu8mV4sr-18" value="&lt;font style=&quot;font-size: 18px;&quot;&gt;API calls Server&lt;/font&gt;" style="text;html=1;strokeColor=none;fillColor=none;align=center;verticalAlign=middle;whiteSpace=wrap;rounded=0;" parent="1" vertex="1">
          <mxGeometry x="296.2" y="180" width="80" height="30" as="geometry" />
        </mxCell>
        <mxCell id="IrRJ5_O-pY0Ifu8mV4sr-22" value="" style="endArrow=none;dashed=1;html=1;rounded=0;" parent="1" edge="1">
          <mxGeometry width="50" height="50" relative="1" as="geometry">
            <mxPoint x="140" y="480" as="sourcePoint" />
            <mxPoint x="140" y="80" as="targetPoint" />
          </mxGeometry>
        </mxCell>
        <mxCell id="IrRJ5_O-pY0Ifu8mV4sr-24" value="&lt;font style=&quot;font-size: 24px;&quot;&gt;Data producer&lt;/font&gt;" style="text;html=1;strokeColor=none;fillColor=none;align=center;verticalAlign=middle;whiteSpace=wrap;rounded=0;" parent="1" vertex="1">
          <mxGeometry x="24" y="50" width="80" height="30" as="geometry" />
        </mxCell>
        <mxCell id="IrRJ5_O-pY0Ifu8mV4sr-26" value="&lt;font style=&quot;font-size: 24px;&quot;&gt;Data Broker&lt;/font&gt;" style="text;html=1;strokeColor=none;fillColor=none;align=center;verticalAlign=middle;whiteSpace=wrap;rounded=0;" parent="1" vertex="1">
          <mxGeometry x="300" y="50" width="80" height="30" as="geometry" />
        </mxCell>
        <mxCell id="IrRJ5_O-pY0Ifu8mV4sr-29" value="" style="group" parent="1" vertex="1" connectable="0">
          <mxGeometry x="380" y="270" width="132" height="30" as="geometry" />
        </mxCell>
        <mxCell id="IrRJ5_O-pY0Ifu8mV4sr-30" value="" style="shape=flexArrow;endArrow=classic;html=1;rounded=0;endWidth=38;endSize=11.474285714285713;width=72.57142857142857;" parent="IrRJ5_O-pY0Ifu8mV4sr-29" edge="1">
          <mxGeometry width="50" height="50" relative="1" as="geometry">
            <mxPoint y="20" as="sourcePoint" />
            <mxPoint x="140" y="20" as="targetPoint" />
          </mxGeometry>
        </mxCell>
        <mxCell id="IrRJ5_O-pY0Ifu8mV4sr-31" value="&lt;font style=&quot;font-size: 18px;&quot;&gt;Heart data consumption&lt;/font&gt;" style="text;html=1;strokeColor=none;fillColor=none;align=center;verticalAlign=middle;whiteSpace=wrap;rounded=0;" parent="IrRJ5_O-pY0Ifu8mV4sr-29" vertex="1">
          <mxGeometry x="10" width="110" height="30" as="geometry" />
        </mxCell>
        <mxCell id="IrRJ5_O-pY0Ifu8mV4sr-32" style="edgeStyle=orthogonalEdgeStyle;rounded=0;orthogonalLoop=1;jettySize=auto;html=1;exitX=0.5;exitY=1;exitDx=0;exitDy=0;" parent="IrRJ5_O-pY0Ifu8mV4sr-29" source="IrRJ5_O-pY0Ifu8mV4sr-31" target="IrRJ5_O-pY0Ifu8mV4sr-31" edge="1">
          <mxGeometry relative="1" as="geometry" />
        </mxCell>
        <mxCell id="IrRJ5_O-pY0Ifu8mV4sr-35" value="&lt;font style=&quot;font-size: 18px;&quot;&gt;Data Storage&lt;/font&gt;" style="text;html=1;strokeColor=none;fillColor=none;align=center;verticalAlign=middle;whiteSpace=wrap;rounded=0;" parent="1" vertex="1">
          <mxGeometry x="570" y="190" width="60" height="30" as="geometry" />
        </mxCell>
        <mxCell id="IrRJ5_O-pY0Ifu8mV4sr-41" style="edgeStyle=orthogonalEdgeStyle;rounded=0;orthogonalLoop=1;jettySize=auto;html=1;exitX=0.5;exitY=1;exitDx=0;exitDy=0;" parent="1" edge="1">
          <mxGeometry relative="1" as="geometry">
            <mxPoint x="455" y="310" as="sourcePoint" />
            <mxPoint x="455" y="310" as="targetPoint" />
          </mxGeometry>
        </mxCell>
        <mxCell id="g9L9M4cXe2nwXgYZEAq0-1" value="" style="image;html=1;image=img/lib/clip_art/computers/Server_Rack_128x128.png" vertex="1" parent="1">
          <mxGeometry x="282.4" y="220" width="107.6" height="120" as="geometry" />
        </mxCell>
        <mxCell id="g9L9M4cXe2nwXgYZEAq0-2" value="&lt;font style=&quot;font-size: 24px;&quot;&gt;Data Consumer&lt;/font&gt;" style="text;html=1;strokeColor=none;fillColor=none;align=center;verticalAlign=middle;whiteSpace=wrap;rounded=0;" vertex="1" parent="1">
          <mxGeometry x="560" y="50" width="80" height="30" as="geometry" />
        </mxCell>
        <mxCell id="g9L9M4cXe2nwXgYZEAq0-20" value="" style="edgeStyle=orthogonalEdgeStyle;rounded=0;orthogonalLoop=1;jettySize=auto;html=1;" edge="1" parent="1" source="g9L9M4cXe2nwXgYZEAq0-3" target="g9L9M4cXe2nwXgYZEAq0-10">
          <mxGeometry relative="1" as="geometry" />
        </mxCell>
        <mxCell id="g9L9M4cXe2nwXgYZEAq0-3" value="" style="verticalLabelPosition=bottom;html=1;verticalAlign=top;align=center;strokeColor=none;fillColor=#00BEF2;shape=mxgraph.azure.sql_database;" vertex="1" parent="1">
          <mxGeometry x="560" y="238" width="80" height="110" as="geometry" />
        </mxCell>
        <mxCell id="g9L9M4cXe2nwXgYZEAq0-4" value="" style="endArrow=none;dashed=1;html=1;rounded=0;" edge="1" parent="1">
          <mxGeometry width="50" height="50" relative="1" as="geometry">
            <mxPoint x="530" y="430" as="sourcePoint" />
            <mxPoint x="530" y="30" as="targetPoint" />
          </mxGeometry>
        </mxCell>
        <mxCell id="g9L9M4cXe2nwXgYZEAq0-19" value="" style="edgeStyle=orthogonalEdgeStyle;rounded=0;orthogonalLoop=1;jettySize=auto;html=1;" edge="1" parent="1" source="g9L9M4cXe2nwXgYZEAq0-9" target="IrRJ5_O-pY0Ifu8mV4sr-3">
          <mxGeometry relative="1" as="geometry" />
        </mxCell>
        <mxCell id="g9L9M4cXe2nwXgYZEAq0-9" value="&lt;font style=&quot;font-size: 24px;&quot;&gt;Data queue start&lt;br&gt;&lt;/font&gt;" style="text;html=1;strokeColor=none;fillColor=none;align=center;verticalAlign=middle;whiteSpace=wrap;rounded=0;" vertex="1" parent="1">
          <mxGeometry x="-140" y="275" width="80" height="30" as="geometry" />
        </mxCell>
        <mxCell id="g9L9M4cXe2nwXgYZEAq0-10" value="&lt;font style=&quot;font-size: 24px;&quot;&gt;Data queue finish&lt;br&gt;&lt;/font&gt;" style="text;html=1;strokeColor=none;fillColor=none;align=center;verticalAlign=middle;whiteSpace=wrap;rounded=0;" vertex="1" parent="1">
          <mxGeometry x="690" y="278" width="80" height="30" as="geometry" />
        </mxCell>
        <mxCell id="IrRJ5_O-pY0Ifu8mV4sr-8" value="" style="shape=flexArrow;endArrow=classic;html=1;rounded=0;endWidth=38;endSize=13.668571428571429;width=68.57142857142857;" parent="1" edge="1">
          <mxGeometry width="50" height="50" relative="1" as="geometry">
            <mxPoint x="150" y="289" as="sourcePoint" />
            <mxPoint x="282" y="289" as="targetPoint" />
            <Array as="points">
              <mxPoint x="220" y="289" />
            </Array>
          </mxGeometry>
        </mxCell>
        <mxCell id="IrRJ5_O-pY0Ifu8mV4sr-9" value="&lt;font style=&quot;font-size: 18px;&quot;&gt;Heart data streaming&lt;/font&gt;" style="text;html=1;strokeColor=none;fillColor=none;align=center;verticalAlign=middle;whiteSpace=wrap;rounded=0;" parent="1" vertex="1">
          <mxGeometry x="150" y="269" width="110" height="30" as="geometry" />
        </mxCell>
        <mxCell id="IrRJ5_O-pY0Ifu8mV4sr-12" style="edgeStyle=orthogonalEdgeStyle;rounded=0;orthogonalLoop=1;jettySize=auto;html=1;exitX=0.5;exitY=1;exitDx=0;exitDy=0;" parent="1" source="IrRJ5_O-pY0Ifu8mV4sr-9" target="IrRJ5_O-pY0Ifu8mV4sr-9" edge="1">
          <mxGeometry relative="1" as="geometry" />
        </mxCell>
      </root>
    </mxGraphModel>
  </diagram>
</mxfile>
